# xmcd CD database file
#
# Track frame offsets:
#	150
#	17606
#	31672
#	44649
#	61903
#
# Disc length: 980 seconds
#
# Revision: 2
# Processed by: cddbd v1.5.2PL0 Copyright (c) Steve Scherf et al.
# Submitted via: CDex 1.72
#
DISCID=3503d205
DTITLE=Chambers,  and Shane Nicholson (USA-12-Wreck and Ruin-cty) - Wreck and Ruin - D2
DYEAR=2012
DGENRE=Alt-Country
TTITLE0=Misdiagnosed
TTITLE1=Good Enough
TTITLE2=Where No One Knows My Name
TTITLE3=Lead Balloon
TTITLE4=She Waits 'til I'm Asleep
EXTD=YEAR: 2012
EXTT0=
EXTT1=
EXTT2=
EXTT3=
EXTT4=
PLAYORDER=
